<svg xmlns="http://www.w3.org/2000/svg" xmlns:xlink="http://www.w3.org/1999/xlink" width="258.912" height="263.23" viewBox="0 0 258.912 263.23">
  <defs>
    <filter id="Exclusion_3" x="0" y="0" width="258.912" height="263.23" filterUnits="userSpaceOnUse">
      <feOffset dy="3" input="SourceAlpha"/>
      <feGaussianBlur stdDeviation="3" result="blur"/>
      <feFlood flood-opacity="0.518"/>
      <feComposite operator="in" in2="blur"/>
      <feComposite in="SourceGraphic"/>
    </filter>
  </defs>
  <g transform="matrix(1, 0, 0, 1, 0, 0)" filter="url(#Exclusion_3)">
    <path id="Exclusion_3-2" data-name="Exclusion 3" d="M146.675,3246.23A123.315,123.315,0,0,1,57.2,3206.952a113.836,113.836,0,0,1-18.345-26.246,102.2,102.2,0,0,1-9.068-26.3,95.23,95.23,0,0,1-1.27-28.209,99.2,99.2,0,0,1,7.693-29.021,120.74,120.74,0,0,1,17.816-28.739.838.838,0,0,0,.031-.783.769.769,0,0,0-.653-.228c-1.95,0-7.555,2.777-12.5,5.227l-.015.007-.42.209c-5.212,2.584-10.134,5.026-11.807,5.026a.59.59,0,0,1-.524-.19c-.1-.148-.074-.393.084-.727,4.076-8.614,10.548-17.829,18.715-26.648a168.4,168.4,0,0,1,28.683-24.475C99.27,3009.825,124.681,3001,147.167,3001a134.836,134.836,0,0,1,44.452,7.458,130.642,130.642,0,0,1,37.785,20.606,104.164,104.164,0,0,0-18.569,15.634,100.309,100.309,0,0,0-14.245,19.382,95.667,95.667,0,0,0,4.174,100.749,103.64,103.64,0,0,0,42.883,36.15l-.015.093c-.026.154-.048.287-.066.408-14.611,15.185-30.709,26.712-47.847,34.262A120.951,120.951,0,0,1,146.675,3246.23ZM88.547,3119.664c-.048.121-4.712,11.9-9.038,26.963a233.806,233.806,0,0,0-5.771,24.6c-1.6,9.319-2.172,17.372-1.693,23.933a50.547,50.547,0,0,0,4.774,18.319,48.17,48.17,0,0,0,8.458,12.253,44.555,44.555,0,0,0,11.66,9l-.01-.01a73.474,73.474,0,0,1-7.658-12.7,94.886,94.886,0,0,1-5.714-14.808,93.815,93.815,0,0,1-3.527-19.48,142.077,142.077,0,0,1,.446-22.772c.62-6.839,1.638-14.258,3.027-22.05,2.368-13.286,5.02-23.149,5.046-23.247Zm-6.345-9.619c-.065.1-6.537,10.272-13.256,23.625a212.8,212.8,0,0,0-9.653,21.91c-3.08,8.381-4.938,15.738-5.522,21.867a44.177,44.177,0,0,0,1.763,17.6,43.327,43.327,0,0,0,6.374,12.517,42.32,42.32,0,0,0,10.057,9.962l-.008-.01a65.554,65.554,0,0,1-5.512-12.818,83.161,83.161,0,0,1-3.255-14.488,81.939,81.939,0,0,1-.345-18.494,125.608,125.608,0,0,1,4.1-20.972c1.712-6.229,3.91-12.937,6.534-19.939C77.962,3118.853,82.161,3110.131,82.2,3110.045Zm-3.413-6.288c-.092.094-7.971,8.23-16.612,19.248a188.449,188.449,0,0,0-12.8,18.248c-4.29,7.072-7.22,13.408-8.708,18.83a36.732,36.732,0,0,0-.874,16.085,37.673,37.673,0,0,0,4.438,12.21,40.079,40.079,0,0,0,8.457,10.467l-.007-.011a56.46,56.46,0,0,1-3.541-12.352,69.508,69.508,0,0,1-1.063-13.514,68.076,68.076,0,0,1,2.408-16.678,106.372,106.372,0,0,1,7.174-18.238c2.618-5.344,5.788-11.045,9.422-16.944C73.218,3111.155,78.562,3104.058,78.789,3103.757Zm74.59-74.771h0a116.239,116.239,0,0,0,.728,15.912,52.948,52.948,0,0,0,2.671,11.995c1.485,3.948,3.429,6.529,5.776,7.67a8.439,8.439,0,0,0,3.712.786,21.722,21.722,0,0,0,9.075-2.553,63.691,63.691,0,0,0,9.206-5.617,106.641,106.641,0,0,0,10-8.172l-41.172-20.021Zm114.82,96.747h0l-.005-.007c-.874-.994-5.5-6.225-10.773-11.614-3.383-3.454-6.356-6.285-8.837-8.416-3.113-2.672-5.473-4.26-7.013-4.719a9.216,9.216,0,0,0-2.513-.271c-2.9,0-9.221.71-22.824,4.092-7.759,1.929-14.44,3.874-15.177,4.09h-.005s0-.006,0-.021v-.009c.1-.739.641-4.706,1.832-10.262a148.307,148.307,0,0,1,6.717-22.676c3.729-7.684,8.088-16.414,12.632-22.775,4.9-6.863,9.463-10.2,13.942-10.2a9.284,9.284,0,0,1,1.884.2,15.392,15.392,0,0,1,6.636,3.738,44.145,44.145,0,0,1,6.867,7.887,95.249,95.249,0,0,1,11.795,24.153,108.97,108.97,0,0,1,4.26,17.882,115.508,115.508,0,0,1,1.276,14.917,87.992,87.992,0,0,1-.69,14.01Z" transform="translate(-19 -2995)" fill="#6d7ea5" opacity="0.998"/>
  </g>
</svg>
